<?xml version="1.0" encoding="UTF-8"?>
<svg width="200px" height="31.42px" version="1.1" viewBox="0 0 371 58.3" xmlns="http://www.w3.org/2000/svg">
<path d="m221.1 39.4h-16.9v-38.4h-7.7v35.3c0 5.1 0 9.2 9.2 9.2h16.9zm-121.3-38.4h-35.3v6.1h13.8v38.4h7.7v-38.4h13.8zm20 10.7h-16.9c-9.2 0-9.2 4.1-9.2 9.2v15.3c0 5.1 0 9.2 9.2 9.2h24.5l-1.5-6.1h-24.5v-21.4h19.9v7.7h-15.3l-1.5 6.1h15.3c9.2 0 9.2-4.1 9.2-9.2v-1.5c0-5.1 0-9.3-9.2-9.3zm38.4 13.9h-18.4v-7.7h24.5l1.5-6.1h-24.6c-9.2 0-9.2 4.1-9.2 9.2v1.5c0 5.1 0 9.2 9.2 9.2h18.4v7.7h-24.6l-1.5 6.1h24.6c9.2 0 9.2-4.1 9.2-9.2v-1.5c0.1-5.1 0-9.2-9.1-9.2zm33.7 13.8h-13.8v-21.5h10.7l1.5-6.1h-12.3v-4.7h-7.7v29.2c0 5.1 0 9.2 9.2 9.2h13.8zm178.1-18.4c0-5.1 0-9.2-9.2-9.2h-16.9c-9.2 0-9.2 4.1-9.2 9.2v15.3c0 5.1 0 9.2 9.2 9.2h24.5l-1.5-6.1h-24.6v-21.5h19.9v7.7s-1.4 0-1.5 0h-13.9l-1.5 6.1h15.3c9.2 0 9.2-4.1 9.2-9.2v-1.5zm-121.3-9.3h-15.3c-9.2 0-9.2 4.1-9.2 9.2v15.3c0 5.1 0 9.2 9.2 9.2h15.3c9.2 0 9.2-4.1 9.2-9.2v-15.2c0-5.1 0-9.3-9.2-9.3zm1.5 24.6v3.1h-18.3v-21.5h18.3v3.1zm81.4-15.3c0-5.1 0-9.2-9.2-9.2h-16.9c-7.6 0.5-7.7 4.4-7.7 9.2v15.3c0 5.1 0 9.2 9.2 9.2h13.8l-1.5-6.1h-13.8v-21.5h18.3v32.2s-1.4 0-1.5 0h-21.5l-1.5 6.1h23c9.2 0 9.2-4.1 9.2-9.2v-26zm-36.9-20h-7.7v38.4h-18.3v-21.5h13.8l1.5-6.1h-13.8c-9.2 0-9.2 4.1-9.2 9.2v15.3c0 5.1 0 9.2 9.2 9.2h15.3c9.2 0 9.2-4.1 9.2-9.2z" fill="#575659"/>
<path d="m1.6 2.5v13.8l23-3z" fill="#00758d"/>
<path d="m53.8 2.5-23 10.8 23 3z" fill="#b6bd00"/>
<path d="m30.8 13.3 9.2 27.6 3-18.4z" fill="#00665e"/>
<path d="m12.4 22.5 3 18.4 9.2-27.6z" fill="#b6bd00"/>
<path d="m46.1 1-18.4 7.7 26.1-6.2z" fill="#00758d"/>
<path d="m27.7 4.1-18.4-3.1 18.4 7.7z" fill="#63a70a"/>
<path d="m15.4 40.9 12.3 4.6-3.1-32.2z" fill="#63a70a"/>
<path d="m1.6 16.3 10.8 6.2 12.2-9.2z" fill="#00665e"/>
<path d="m27.7 45.5 12.3-4.6-9.2-27.6z" fill="#00758d"/>
<path d="m43 22.5 10.8-6.2-23-3z" fill="#63a70a"/>
<path d="m46.1 1-18.4 3.1v4.6z" fill="#00665e"/>
<path d="m9.3 1-7.7 1.5 26.1 6.2z" fill="#b6bd00"/>
</svg>
